<svg width="20" height="21" viewBox="0 0 20 21" fill="none" xmlns="http://www.w3.org/2000/svg">
<path d="M19.6667 7.83355C19.8508 7.83355 20 7.68431 20 7.50024V6.16699C20 6.16266 19.9977 6.15933 19.9977 6.15499C19.9964 6.11858 19.9891 6.08267 19.976 6.04867C19.976 6.04467 19.976 6.04 19.973 6.036C19.9568 5.99963 19.9343 5.96642 19.9063 5.93801C19.8965 5.92926 19.8861 5.92101 19.8753 5.91334C19.8604 5.89922 19.8443 5.88651 19.827 5.87535L10.161 0.542373C10.0609 0.48671 9.93913 0.48671 9.83901 0.542373L0.172988 5.87535C0.15574 5.88651 0.139574 5.89922 0.124658 5.91334C0.113909 5.92101 0.103535 5.92926 0.0936604 5.93801C0.0657456 5.96642 0.0432055 5.99963 0.0269982 6.036C0.0269982 6.04 0.0269982 6.04467 0.0239984 6.04867C0.0109159 6.08267 0.00362476 6.11858 0.00233318 6.15499C0.00233318 6.15933 0 6.16266 0 6.16699V7.50024C0 7.68431 0.14924 7.83355 0.333311 7.83355H1.33458V17.8329H0.334644C0.150573 17.8329 0.00133324 17.9821 0.00133324 18.1662V20.166C0.00133324 20.3501 0.150573 20.4994 0.334644 20.4994H19.6667C19.8508 20.4994 20 20.3501 20 20.166V18.1662C20 17.9821 19.8508 17.8329 19.6667 17.8329H18.6668V7.83355H19.6667ZM10.0007 1.21466L18.3724 5.83368H1.62889L10.0007 1.21466ZM19.3334 18.4995V19.8327H0.667955V18.4995H19.3334ZM2.0012 17.8329V7.83355H3.33444V17.8329H2.0012ZM4.00107 17.8329V7.83355H16.0003V17.8329H4.00107ZM16.6669 17.8329V7.83355H18.0001V17.8329H16.6669ZM0.667955 7.16693V6.5003H19.3334V7.16693H0.667955Z" fill="#828282"/>
</svg>
