<svg width="20" height="20" viewBox="0 0 20 20" fill="none" xmlns="http://www.w3.org/2000/svg">
<path d="M17.063 2.93703C15.169 1.04305 12.6607 0 10 0C7.33934 0 4.83098 1.04305 2.93703 2.93703C1.04305 4.83098 0 7.33934 0 10C0 12.6607 1.04305 15.169 2.93703 17.063C4.83098 18.957 7.33934 20 10 20C12.6607 20 15.169 18.957 17.063 17.063C18.957 15.169 20 12.6607 20 10C20 7.33934 18.957 4.83098 17.063 2.93703ZM10 18.8281C5.13215 18.8281 1.17188 14.8679 1.17188 10C1.17188 5.13215 5.13215 1.17188 10 1.17188C14.8679 1.17188 18.8281 5.13215 18.8281 10C18.8281 14.8679 14.8679 18.8281 10 18.8281Z" fill="black"/>
<path d="M10 2.38281C5.79988 2.38281 2.38281 5.79988 2.38281 10C2.38281 14.2001 5.79988 17.6172 10 17.6172C14.2001 17.6172 17.6172 14.2001 17.6172 10C17.6172 5.79988 14.2001 2.38281 10 2.38281ZM10 16.4453C6.44605 16.4453 3.55469 13.5539 3.55469 10C3.55469 6.44605 6.44605 3.55469 10 3.55469C13.5539 3.55469 16.4453 6.44605 16.4453 10C16.4453 13.5539 13.5539 16.4453 10 16.4453Z" fill="black"/>
<path d="M11.7578 8.23619C11.7578 8.55978 12.0202 8.82212 12.3438 8.82212C12.6673 8.82212 12.9297 8.55978 12.9297 8.23619C12.9297 7.58728 12.5941 6.96337 12.0088 6.52447C11.6091 6.22466 11.1173 6.02439 10.5859 5.93919V5.30646C10.5859 4.98286 10.3236 4.72052 10 4.72052C9.67641 4.72052 9.41406 4.98286 9.41406 5.30646V5.93919C8.8827 6.02439 8.39086 6.22466 7.99117 6.52447C7.40594 6.96337 7.07031 7.58728 7.07031 8.23619C7.07031 8.88509 7.40594 9.50896 7.99117 9.9479C8.3909 10.2477 8.88273 10.448 9.41406 10.5332V12.8538C8.73906 12.6889 8.24219 12.2508 8.24219 11.7518C8.24219 11.4282 7.97984 11.1659 7.65625 11.1659C7.33266 11.1659 7.07031 11.4282 7.07031 11.7518C7.07031 12.4007 7.40594 13.0246 7.99117 13.4635C8.3909 13.7633 8.88273 13.9636 9.41406 14.0488V14.6874C9.41406 15.011 9.67641 15.2734 10 15.2734C10.3236 15.2734 10.5859 15.011 10.5859 14.6874V14.0488C11.1173 13.9636 11.6091 13.7633 12.0088 13.4635C12.5941 13.0246 12.9297 12.4007 12.9297 11.7518C12.9297 11.1029 12.5941 10.479 12.0088 10.0401C11.6091 9.74029 11.1173 9.54001 10.5859 9.45482V7.13415C11.2609 7.29915 11.7578 7.73716 11.7578 8.23619ZM8.24219 8.23619C8.24219 7.73716 8.73906 7.29911 9.41406 7.13415V9.33818C8.73906 9.17325 8.24219 8.73521 8.24219 8.23619ZM11.7578 11.7518C11.7578 12.2508 11.2609 12.6889 10.5859 12.8538V10.6498C11.2609 10.8148 11.7578 11.2528 11.7578 11.7518Z" fill="black"/>
</svg>
