<svg width="21" height="25" viewBox="0 0 21 25" fill="none" xmlns="http://www.w3.org/2000/svg">
<path d="M10.2711 12.0426C11.9255 12.0426 13.3579 11.4492 14.5287 10.2785C15.699 9.10797 16.2926 7.67574 16.2926 6.02112C16.2926 4.36707 15.6992 2.93465 14.5285 1.76373C13.3577 0.593376 11.9253 0 10.2711 0C8.61645 0 7.18422 0.593376 6.01368 1.76392C4.84314 2.93446 4.24957 4.36687 4.24957 6.02112C4.24957 7.67574 4.84314 9.10816 6.01368 10.2787C7.1846 11.4491 8.61702 12.0426 10.2711 12.0426ZM7.04975 2.7998C7.94792 1.90163 9.00154 1.46503 10.2711 1.46503C11.5404 1.46503 12.5942 1.90163 13.4926 2.7998C14.3908 3.69816 14.8275 4.75197 14.8275 6.02112C14.8275 7.29065 14.3908 8.34427 13.4926 9.24263C12.5942 10.141 11.5404 10.5776 10.2711 10.5776C9.00192 10.5776 7.9483 10.1408 7.04975 9.24263C6.15139 8.34446 5.71461 7.29065 5.71461 6.02112C5.71461 4.75197 6.15139 3.69816 7.04975 2.7998Z" fill="black"/>
<path d="M20.8071 19.2238C20.7733 18.7366 20.705 18.2053 20.6045 17.6441C20.503 17.0788 20.3724 16.5443 20.216 16.0559C20.0542 15.551 19.8347 15.0524 19.5629 14.5746C19.2812 14.0787 18.9501 13.6469 18.5785 13.2915C18.19 12.9198 17.7143 12.6209 17.1642 12.4029C16.6161 12.186 16.0086 12.0762 15.3587 12.0762C15.1035 12.0762 14.8567 12.1809 14.3801 12.4912C14.0867 12.6825 13.7436 12.9038 13.3606 13.1485C13.0331 13.3572 12.5895 13.5527 12.0415 13.7297C11.5068 13.9027 10.964 13.9904 10.428 13.9904C9.89246 13.9904 9.34963 13.9027 8.81462 13.7297C8.26721 13.5528 7.82337 13.3573 7.49645 13.1487C7.11708 12.9063 6.77376 12.685 6.47602 12.491C5.99976 12.1807 5.75294 12.076 5.49774 12.076C4.84772 12.076 4.24042 12.186 3.69244 12.4031C3.14274 12.6207 2.66685 12.9196 2.27795 13.2917C1.90639 13.6473 1.57528 14.0789 1.29375 14.5746C1.02234 15.0524 0.802612 15.5508 0.640869 16.0561C0.484657 16.5445 0.354004 17.0788 0.252533 17.6441C0.151825 18.2045 0.0837326 18.7361 0.0499726 19.2243C0.0167847 19.7018 0 20.1986 0 20.7006C0 22.0056 0.414848 23.0621 1.23291 23.8413C2.04086 24.6101 3.10974 25 4.40998 25H16.4476C17.7475 25 18.8164 24.6101 19.6245 23.8413C20.4428 23.0627 20.8576 22.0058 20.8576 20.7004C20.8574 20.1967 20.8405 19.6999 20.8071 19.2238ZM18.6144 22.7798C18.0805 23.288 17.3717 23.535 16.4474 23.535H4.40998C3.48549 23.535 2.77672 23.288 2.24304 22.78C1.71947 22.2816 1.46503 21.6013 1.46503 20.7006C1.46503 20.2322 1.48048 19.7697 1.51138 19.3256C1.54152 18.89 1.60313 18.4114 1.69449 17.9029C1.78471 17.4007 1.89953 16.9294 2.03609 16.5028C2.16713 16.0936 2.34585 15.6885 2.56748 15.2983C2.77901 14.9263 3.02238 14.6072 3.29094 14.3501C3.54214 14.1096 3.85876 13.9128 4.23183 13.7651C4.57687 13.6286 4.96464 13.5538 5.38559 13.5425C5.4369 13.5698 5.52826 13.6219 5.67627 13.7184C5.97744 13.9147 6.32458 14.1386 6.70834 14.3837C7.14092 14.6595 7.69825 14.9086 8.36411 15.1236C9.04484 15.3437 9.73911 15.4554 10.4282 15.4554C11.1174 15.4554 11.8118 15.3437 12.4922 15.1237C13.1586 14.9084 13.7157 14.6595 14.1489 14.3833C14.5416 14.1323 14.879 13.9149 15.1802 13.7184C15.3282 13.6221 15.4196 13.5698 15.4709 13.5425C15.892 13.5538 16.2798 13.6286 16.625 13.7651C16.9979 13.9128 17.3145 14.1098 17.5657 14.3501C17.8343 14.607 18.0777 14.9261 18.2892 15.2985C18.511 15.6885 18.6899 16.0938 18.8208 16.5026C18.9575 16.9298 19.0725 17.4009 19.1626 17.9027C19.2537 18.4122 19.3155 18.8909 19.3457 19.3258C19.3768 19.7681 19.3924 20.2309 19.3926 20.7006C19.3924 21.6015 19.138 22.2816 18.6144 22.7798Z" fill="black"/>
</svg>
