<svg width="20" height="20" viewBox="0 0 20 20" fill="none" xmlns="http://www.w3.org/2000/svg">
<g filter="url(#filter0_d)">
<path d="M19.0625 4.81251H18.75V3.56251C18.7499 3.51808 18.7404 3.47417 18.722 3.43372C18.7036 3.39327 18.6769 3.35721 18.6434 3.32793C18.61 3.29865 18.5707 3.27684 18.5282 3.26394C18.4857 3.25104 18.4409 3.24736 18.3969 3.25313L18.125 3.28751V2.00001C18.1252 1.95222 18.1144 1.90503 18.0932 1.86218C18.0721 1.81933 18.0412 1.782 18.0031 1.75313C17.9654 1.72422 17.9217 1.70416 17.8752 1.69442C17.8286 1.68468 17.7805 1.68553 17.7344 1.69688L6.27188 4.63751L7.43751 2.61876C7.57214 2.38148 7.64319 2.11344 7.64376 1.84063C7.64443 1.49642 7.53142 1.16161 7.32228 0.888218C7.11314 0.614824 6.81958 0.418141 6.48718 0.328718C6.15478 0.239295 5.80216 0.262137 5.48408 0.393695C5.16599 0.525254 4.90025 0.758166 4.72813 1.05626L0.837507 7.80001C0.698357 8.03799 0.625016 8.3087 0.625007 8.58438V12.45C0.624558 12.5948 0.644547 12.7389 0.684382 12.8781L1.68126 16.375H1.56251C1.47963 16.375 1.40014 16.4079 1.34154 16.4665C1.28293 16.5251 1.25001 16.6046 1.25001 16.6875V18.5625C1.25001 18.6454 1.28293 18.7249 1.34154 18.7835C1.40014 18.8421 1.47963 18.875 1.56251 18.875H8.43751C8.52039 18.875 8.59987 18.8421 8.65848 18.7835C8.71708 18.7249 8.75001 18.6454 8.75001 18.5625V16.6875C8.75001 16.6046 8.71708 16.5251 8.65848 16.4665C8.59987 16.4079 8.52039 16.375 8.43751 16.375V15.5906C8.43794 15.3028 8.38157 15.0178 8.27164 14.7518C8.16171 14.4858 8.00038 14.2441 7.79688 14.0406L7.31563 13.5625H19.0625C19.1454 13.5625 19.2249 13.5296 19.2835 13.471C19.3421 13.4124 19.375 13.3329 19.375 13.25V5.12501C19.375 5.04213 19.3421 4.96264 19.2835 4.90404C19.2249 4.84543 19.1454 4.81251 19.0625 4.81251ZM18.125 3.91876V4.81251H11.3344L18.125 3.91876ZM17.5 2.40313V3.37188L9.74688 4.39063L17.5 2.40313ZM8.12501 18.25H1.87501V17H8.12501V18.25ZM6.27501 13.3688C6.2905 13.4066 6.31394 13.4407 6.34376 13.4688L6.34063 13.4719L7.35313 14.4844C7.49947 14.6289 7.61548 14.8012 7.69437 14.9912C7.77325 15.1811 7.81341 15.3849 7.81251 15.5906V16.375H2.33126L1.28438 12.7094C1.26202 12.6247 1.25047 12.5376 1.25001 12.45V8.58438C1.2495 8.41942 1.29378 8.2574 1.37813 8.11563L5.27188 1.36876C5.3329 1.26191 5.41451 1.16824 5.512 1.09318C5.60949 1.01811 5.7209 0.963145 5.83979 0.93146C5.95868 0.899776 6.08268 0.892006 6.20459 0.908601C6.3265 0.925195 6.44391 0.965824 6.55001 1.02813C6.6937 1.10922 6.813 1.22739 6.89545 1.37031C6.9779 1.51322 7.02048 1.67565 7.01876 1.84063C7.01839 2.00408 6.9753 2.1646 6.89376 2.30626L5.44688 4.81251H4.68751C4.60463 4.81251 4.52514 4.84543 4.46654 4.90404C4.40793 4.96264 4.37501 5.04213 4.37501 5.12501V11.6875C4.37535 11.7496 4.39389 11.8102 4.42833 11.8619C4.46276 11.9135 4.51159 11.9539 4.56876 11.9781C4.62696 12.0016 4.69088 12.007 4.75219 11.9936C4.8135 11.9802 4.86936 11.9487 4.91251 11.9031L7.66876 9.05313C7.78935 8.93325 7.94021 8.84834 8.10526 8.80745C8.27031 8.76655 8.44337 8.77121 8.60598 8.82092C8.76859 8.87064 8.91466 8.96354 9.02863 9.08974C9.1426 9.21593 9.22019 9.37069 9.25313 9.53751C9.25938 9.60001 9.26563 9.66251 9.26876 9.71251C9.26636 9.96062 9.16778 10.1981 8.99376 10.375L6.34063 13.0281C6.29727 13.0721 6.2679 13.1279 6.25622 13.1885C6.24454 13.2491 6.25108 13.3118 6.27501 13.3688ZM18.75 12.9375H7.31563L9.30001 10.9563C9.58504 11.3762 9.96901 11.7196 10.4181 11.9561C10.8671 12.1926 11.3675 12.315 11.875 12.3125C12.4531 12.313 13.02 12.1531 13.5127 11.8507C14.0054 11.5482 14.4045 11.115 14.6657 10.5993C14.9268 10.0835 15.0398 9.50544 14.9921 8.9293C14.9443 8.35317 14.7376 7.80158 14.3951 7.33588C14.0526 6.87018 13.5876 6.50863 13.0518 6.29144C12.516 6.07424 11.9305 6.00992 11.3604 6.10563C10.7903 6.20134 10.2579 6.45332 9.82239 6.83355C9.38692 7.21378 9.06546 7.70736 8.89376 8.25938C8.6104 8.15125 8.30183 8.12734 8.0052 8.19055C7.70857 8.25376 7.43654 8.40138 7.22188 8.61563L5.00001 10.9156V5.43751H18.75V12.9375ZM9.86876 9.43751C9.81224 9.1282 9.66418 8.84298 9.44376 8.61876C9.57464 8.04941 9.90024 7.54363 10.3643 7.18878C10.8284 6.83394 11.4018 6.65229 11.9856 6.67522C12.5694 6.69814 13.1268 6.9242 13.5616 7.31435C13.9964 7.7045 14.2814 8.23425 14.3672 8.81212C14.453 9.38998 14.3344 9.97968 14.0317 10.4794C13.7291 10.9791 13.2614 11.3574 12.7095 11.549C12.1576 11.7406 11.5561 11.7334 11.009 11.5288C10.4618 11.3242 10.0032 10.9349 9.71251 10.4281C9.82658 10.2031 9.88853 9.95534 9.89376 9.70313C9.89063 9.61876 9.88126 9.53751 9.86876 9.43751Z" fill="#999999"/>
</g>
<defs>
<filter id="filter0_d" x="-3.375" y="0.27507" width="26.75" height="26.5999" filterUnits="userSpaceOnUse" color-interpolation-filters="sRGB">
<feFlood flood-opacity="0" result="BackgroundImageFix"/>
<feColorMatrix in="SourceAlpha" type="matrix" values="0 0 0 0 0 0 0 0 0 0 0 0 0 0 0 0 0 0 127 0"/>
<feOffset dy="4"/>
<feGaussianBlur stdDeviation="2"/>
<feColorMatrix type="matrix" values="0 0 0 0 0 0 0 0 0 0 0 0 0 0 0 0 0 0 0.25 0"/>
<feBlend mode="normal" in2="BackgroundImageFix" result="effect1_dropShadow"/>
<feBlend mode="normal" in="SourceGraphic" in2="effect1_dropShadow" result="shape"/>
</filter>
</defs>
</svg>
