<svg width="20" height="22" viewBox="0 0 20 22" fill="none" xmlns="http://www.w3.org/2000/svg">
<path d="M17.7273 21.8182H6.81818C5.56546 21.8182 4.54546 20.7991 4.54546 19.5454V5.90908C4.54546 4.65544 5.56546 3.63635 6.81818 3.63635H17.7273C18.98 3.63635 20 4.65544 20 5.90908V19.5454C20 20.7991 18.98 21.8182 17.7273 21.8182ZM6.81818 4.54544C6.06636 4.54544 5.45455 5.15726 5.45455 5.90908V19.5454C5.45455 20.2973 6.06636 20.9091 6.81818 20.9091H17.7273C18.4791 20.9091 19.0909 20.2973 19.0909 19.5454V5.90908C19.0909 5.15726 18.4791 4.54544 17.7273 4.54544H6.81818Z" fill="black"/>
<path d="M3.18182 19.0909H2.27273C1.02 19.0909 0 18.0718 0 16.8182V2.27273C0 1.01909 1.02 0 2.27273 0H13.1818C14.4345 0 15.4545 1.01909 15.4545 2.27273C15.4545 2.52364 15.2509 2.72727 15 2.72727C14.7491 2.72727 14.5455 2.52364 14.5455 2.27273C14.5455 1.52091 13.9336 0.909091 13.1818 0.909091H2.27273C1.52091 0.909091 0.909091 1.52091 0.909091 2.27273V16.8182C0.909091 17.57 1.52091 18.1818 2.27273 18.1818H3.18182C3.43273 18.1818 3.63636 18.3855 3.63636 18.6364C3.63636 18.8873 3.43273 19.0909 3.18182 19.0909Z" fill="black"/>
<path d="M15.9091 15.4545H8.63637C8.38546 15.4545 8.18182 15.2509 8.18182 15C8.18182 14.7491 8.38546 14.5454 8.63637 14.5454H15.9091C16.16 14.5454 16.3636 14.7491 16.3636 15C16.3636 15.2509 16.16 15.4545 15.9091 15.4545Z" fill="black"/>
<path d="M15.9091 19.0909H8.63637C8.38546 19.0909 8.18182 18.8873 8.18182 18.6364C8.18182 18.3855 8.38546 18.1818 8.63637 18.1818H15.9091C16.16 18.1818 16.3636 18.3855 16.3636 18.6364C16.3636 18.8873 16.16 19.0909 15.9091 19.0909Z" fill="black"/>
<path d="M15.9091 11.8182H8.63637C8.38546 11.8182 8.18182 11.6145 8.18182 11.3636C8.18182 11.1127 8.38546 10.9091 8.63637 10.9091H15.9091C16.16 10.9091 16.3636 11.1127 16.3636 11.3636C16.3636 11.6145 16.16 11.8182 15.9091 11.8182Z" fill="black"/>
<path d="M15.9091 8.18183H8.63637C8.38546 8.18183 8.18182 7.97819 8.18182 7.72728C8.18182 7.47637 8.38546 7.27274 8.63637 7.27274H15.9091C16.16 7.27274 16.3636 7.47637 16.3636 7.72728C16.3636 7.97819 16.16 8.18183 15.9091 8.18183Z" fill="black"/>
</svg>
