<svg width="16" height="15" viewBox="0 0 16 15" fill="none" xmlns="http://www.w3.org/2000/svg">
<path d="M3.15814 7.59631C2.25948 7.59631 1.52772 7.37165 0.962846 6.92232C0.410814 6.46015 0.102704 5.84393 0.0385139 5.07366C0.012838 4.68852 0 4.4125 0 4.24561C0 4.06588 0.012838 3.71925 0.0385139 3.20573C0.0898657 2.42262 0.385139 1.8064 0.924332 1.35707C1.47636 0.894902 2.22097 0.663818 3.15814 0.663818C4.09531 0.663818 4.83349 0.894902 5.37268 1.35707C5.92471 1.8064 6.22641 2.42262 6.27776 3.20573C6.30343 3.71925 6.31627 4.06588 6.31627 4.24561C6.31627 4.4125 6.30343 4.68852 6.27776 5.07366C6.21357 5.84393 5.89904 6.46015 5.33417 6.92232C4.78214 7.37165 4.05679 7.59631 3.15814 7.59631ZM1.69461 14.24C1.55339 14.24 1.43785 14.2079 1.34798 14.1437C1.27096 14.0666 1.23244 13.9704 1.23244 13.8548C1.23244 13.7778 1.25812 13.7072 1.30947 13.643L10.8224 1.12598C10.9251 0.997605 11.0214 0.907739 11.1112 0.856387C11.214 0.792198 11.3487 0.760103 11.5156 0.760103H13.5184C13.6596 0.760103 13.7687 0.798617 13.8457 0.875645C13.9356 0.939835 13.9805 1.0297 13.9805 1.14524C13.9805 1.22227 13.9549 1.29288 13.9035 1.35707L4.39058 13.8741C4.28788 14.0024 4.18517 14.0987 4.08247 14.1629C3.9926 14.2143 3.86422 14.24 3.69733 14.24H1.69461ZM3.15814 5.51656C3.45341 5.51656 3.61388 5.324 3.63956 4.93886C3.66523 4.57939 3.67807 4.3098 3.67807 4.13007C3.67807 3.91182 3.66523 3.64864 3.63956 3.34053C3.61388 2.95539 3.45341 2.76282 3.15814 2.76282C2.86286 2.76282 2.70239 2.95539 2.67671 3.34053C2.66387 3.49459 2.65746 3.75776 2.65746 4.13007C2.65746 4.48953 2.66387 4.75913 2.67671 4.93886C2.70239 5.324 2.86286 5.51656 3.15814 5.51656ZM12.1319 14.3362C11.2332 14.3362 10.5014 14.1116 9.93657 13.6622C9.38454 13.2001 9.07643 12.5839 9.01224 11.8136C8.98657 11.4284 8.97373 11.1524 8.97373 10.9855C8.97373 10.8058 8.98657 10.4592 9.01224 9.94566C9.06359 9.16254 9.35887 8.54632 9.89806 8.09699C10.4501 7.63483 11.1947 7.40374 12.1319 7.40374C13.069 7.40374 13.8072 7.63483 14.3464 8.09699C14.8984 8.54632 15.2001 9.16254 15.2515 9.94566C15.2772 10.4592 15.29 10.8058 15.29 10.9855C15.29 11.1524 15.2772 11.4284 15.2515 11.8136C15.1873 12.5839 14.8728 13.2001 14.3079 13.6622C13.7559 14.1116 13.0305 14.3362 12.1319 14.3362ZM12.1319 12.2565C12.4271 12.2565 12.5876 12.0639 12.6133 11.6788C12.639 11.3193 12.6518 11.0497 12.6518 10.87C12.6518 10.6517 12.639 10.3886 12.6133 10.0805C12.5876 9.69532 12.4271 9.50275 12.1319 9.50275C11.8366 9.50275 11.6761 9.69532 11.6504 10.0805C11.6376 10.2345 11.6312 10.4977 11.6312 10.87C11.6312 11.2295 11.6376 11.499 11.6504 11.6788C11.6761 12.0639 11.8366 12.2565 12.1319 12.2565Z" fill="black"/>
</svg>
