<svg width="20" height="20" viewBox="0 0 20 20" fill="none" xmlns="http://www.w3.org/2000/svg">
<path d="M9.3999 0C4.43412 0 0.399902 4.03422 0.399902 9C0.399902 13.9658 4.43412 18 9.3999 18C11.356 18 12.171 17.6 13.5999 17.6C16.917 17.6 18.8991 19.8633 18.8991 19.8633C18.9622 19.9351 19.0489 19.9819 19.1435 19.9953C19.2382 20.0087 19.3345 19.9878 19.415 19.9363C19.4956 19.8849 19.555 19.8063 19.5826 19.7148C19.6102 19.6233 19.6042 19.5249 19.5655 19.4375C19.5655 19.4375 19.2643 18.7813 18.4382 18.0531C17.612 17.325 16.2433 16.4864 14.078 15.9852C14.0775 15.9849 14.077 15.9846 14.0765 15.9844C14.0586 15.9803 14.0247 15.9693 13.9601 15.9531C13.9595 15.9529 13.959 15.9526 13.9585 15.9523C12.7069 15.6431 11.9005 15.1492 11.3749 14.6633C11.3749 14.663 11.3749 14.6628 11.3749 14.6625C11.2662 14.5622 11.1691 14.4627 11.0827 14.3641C11.0827 14.3638 11.0827 14.3635 11.0827 14.3633C10.4841 13.6813 10.3937 13.1289 10.3937 13.1289C10.3759 13.0305 10.322 12.9422 10.2424 12.8816C10.1629 12.821 10.0635 12.7924 9.96386 12.8014C9.86425 12.8104 9.77162 12.8564 9.70425 12.9303C9.63688 13.0043 9.59965 13.1008 9.5999 13.2008C9.5999 13.2008 9.60614 13.268 9.60615 13.2711V13.2719C9.60624 13.3206 9.65425 13.8686 9.70771 14.3781C9.60527 14.3851 9.50183 14.4 9.3999 14.4C6.41289 14.4 3.9999 11.987 3.9999 9C3.9999 6.01298 6.41289 3.6 9.3999 3.6C12.3869 3.6 14.7999 6.01298 14.7999 9C14.7999 9.2349 14.7619 9.46118 14.7319 9.68906C14.2393 9.64276 13.7213 9.60409 13.6671 9.60625C13.6606 9.60613 13.6022 9.6 13.6022 9.6V9.60156C13.602 9.60157 13.5835 9.6 13.5835 9.6C13.4774 9.60188 13.3764 9.64582 13.3027 9.72215C13.2291 9.79848 13.1887 9.90095 13.1906 10.007C13.1924 10.1131 13.2364 10.2141 13.3127 10.2878C13.389 10.3615 13.4915 10.4018 13.5976 10.4C13.5976 10.4 14.2154 10.407 14.8647 10.7125C14.9753 10.7645 15.0814 10.8211 15.1835 10.8867C16.4528 11.7027 16.7163 12.8883 16.7163 12.8883C16.7344 12.969 16.7772 13.0422 16.8386 13.0976C16.9001 13.1531 16.9772 13.1881 17.0594 13.1979C17.1416 13.2077 17.2248 13.1917 17.2975 13.1522C17.3703 13.1127 17.429 13.0516 17.4655 12.9773C18.0585 11.7785 18.3999 10.4296 18.3999 9C18.3999 4.03422 14.3657 0 9.3999 0ZM9.3999 0.8C13.9333 0.8 17.5999 4.46658 17.5999 9C17.5999 9.97162 17.3804 10.8785 17.0679 11.7422C16.7842 11.2562 16.3398 10.6784 15.6163 10.2133C15.5725 10.1852 15.5308 10.1679 15.4874 10.143C15.5567 9.77303 15.5999 9.39237 15.5999 9C15.5999 5.58062 12.8193 2.8 9.3999 2.8C5.98052 2.8 3.1999 5.58062 3.1999 9C3.1999 12.4194 5.98052 15.2 9.3999 15.2C9.6744 15.2 9.93782 15.1766 10.1913 15.1445C10.2587 15.136 10.3229 15.1105 10.3777 15.0703C10.4325 15.0301 10.4762 14.9766 10.5046 14.9148C10.6039 15.0267 10.7109 15.1391 10.8319 15.2508C11.4599 15.8313 12.3994 16.391 13.7671 16.7289C13.7888 16.7344 13.8295 16.7493 13.8976 16.7648C13.989 16.786 14.0327 16.8214 14.121 16.8438C13.9453 16.8318 13.7829 16.8 13.5999 16.8C12.0288 16.8 11.2438 17.2 9.3999 17.2C4.86648 17.2 1.1999 13.5334 1.1999 9C1.1999 4.46658 4.86648 0.8 9.3999 0.8ZM15.4538 12.8008C15.3558 12.7948 15.2794 12.8374 15.2374 12.9109C15.1526 13.0593 15.2158 13.3534 15.3866 13.6094C15.5598 13.8686 15.7065 14 15.8233 14C15.9305 14 16.0378 13.8658 15.9874 13.5414C15.9574 13.3478 15.8445 12.927 15.5585 12.8234C15.5215 12.81 15.4865 12.8028 15.4538 12.8008ZM14.1468 14C13.9672 14 13.8177 14.0467 13.7257 14.1367C13.4897 14.3679 13.5957 14.7742 13.9569 15.025C14.1149 15.1342 14.3419 15.2 14.5647 15.2C14.7915 15.2 14.9811 15.1322 15.0983 15.0094C15.3083 14.7854 15.1877 14.4684 14.7905 14.2016C14.5937 14.0696 14.3648 14 14.1468 14Z" fill="#A3A3A3"/>
</svg>
