<svg width="20" height="20" viewBox="0 0 20 20" fill="none" xmlns="http://www.w3.org/2000/svg">
<path d="M17.0711 2.92891C15.1823 1.04016 12.6711 0 10 0C7.32891 0 4.8177 1.04016 2.92891 2.92891C1.04012 4.81766 0 7.32891 0 10C0 12.6711 1.04016 15.1823 2.92891 17.0711C4.81766 18.9599 7.32891 20 10 20C12.6711 20 15.1823 18.9598 17.0711 17.0711C18.9599 15.1823 20 12.6711 20 10C20 7.32891 18.9598 4.8177 17.0711 2.92891ZM16.9878 15.2601C16.3898 14.8554 15.7638 14.5057 15.1147 14.2137C15.4014 13.0958 15.5716 11.8821 15.6141 10.625H18.7274C18.6046 12.3569 17.9757 13.9511 16.9878 15.2601ZM1.27258 10.625H4.38594C4.42844 11.8821 4.59867 13.0959 4.88531 14.2137C4.23625 14.5057 3.61023 14.8554 3.01219 15.2601C2.0243 13.9511 1.39539 12.3569 1.27258 10.625ZM3.01203 4.74008C3.61008 5.14484 4.23609 5.49457 4.88523 5.78656C4.59859 6.90434 4.4284 8.11793 4.3859 9.375H1.27258C1.39539 7.6432 2.02426 6.04914 3.01203 4.74008ZM14.087 3.07676C13.858 2.64738 13.6105 2.25992 13.3473 1.91609C14.4047 2.35555 15.358 2.99648 16.1589 3.79098C15.7048 4.08934 15.2331 4.35227 14.7466 4.57945C14.5558 4.0457 14.3354 3.54246 14.087 3.07676ZM13.5805 5.04566C12.4395 5.42816 11.2353 5.625 10 5.625C8.76473 5.625 7.56051 5.42816 6.41945 5.04566C7.21879 2.77016 8.53949 1.25 10 1.25C11.4605 1.25 12.7812 2.77016 13.5805 5.04566ZM5.63684 9.375C5.67809 8.26789 5.82766 7.21012 6.06406 6.24547C7.31938 6.66125 8.64289 6.875 10 6.875C11.3571 6.875 12.6806 6.66125 13.9359 6.24547C14.1724 7.21012 14.3219 8.26785 14.3632 9.375H5.63684ZM14.3632 10.625C14.3219 11.7322 14.1723 12.79 13.9359 13.7547C12.6805 13.3388 11.357 13.125 10 13.125C8.64301 13.125 7.31953 13.3388 6.0641 13.7547C5.82766 12.79 5.67809 11.7322 5.63684 10.625H14.3632ZM5.91301 3.07676C5.66465 3.54246 5.44426 4.0457 5.25336 4.57941C4.76695 4.35227 4.29516 4.0893 3.84105 3.79094C4.64195 2.99641 5.59523 2.35551 6.65266 1.91605C6.38949 2.25992 6.14199 2.64738 5.91301 3.07676ZM5.2534 15.4208C5.44426 15.9545 5.66465 16.4576 5.91297 16.9232C6.14199 17.3526 6.38945 17.7401 6.65262 18.0839C5.59531 17.6445 4.64211 17.0036 3.84125 16.2092C4.29535 15.9109 4.76707 15.648 5.2534 15.4208ZM6.41953 14.9545C7.56066 14.5719 8.76484 14.375 10 14.375C11.2352 14.375 12.4393 14.5719 13.5805 14.9545C12.7811 17.2299 11.4605 18.75 10 18.75C8.53953 18.75 7.21887 17.2299 6.41953 14.9545ZM14.087 16.9232C14.3353 16.4576 14.5557 15.9545 14.7466 15.4208C15.2329 15.648 15.7046 15.9109 16.1587 16.2092C15.3579 17.0036 14.4046 17.6445 13.3473 18.0839C13.6105 17.7401 13.858 17.3526 14.087 16.9232ZM15.6141 9.375C15.5716 8.11797 15.4014 6.90434 15.1147 5.78656C15.7639 5.49457 16.3899 5.14484 16.9879 4.74008C17.9757 6.0491 18.6046 7.64316 18.7274 9.375H15.6141Z" fill="#A3A3A3"/>
</svg>
