<svg width="20" height="21" viewBox="0 0 20 21" fill="none" xmlns="http://www.w3.org/2000/svg">
<path fill-rule="evenodd" clip-rule="evenodd" d="M0.000300598 10.0697C0.000300598 8.92982 0.1241 8.20643 3.1821 6.4443C5.7138 4.9854 13.8288 0 13.8288 0V8.32222H20V20.3H1.9278C0.8677 20.3 0 19.6302 0 18.8118L0.000300598 10.0698V10.0697Z" fill="#A3A3A3"/>
<path fill-rule="evenodd" clip-rule="evenodd" d="M13.8289 8.32214V13.1443L2.48877 19.108L16.8263 15.5068V8.32214H13.8289Z" fill="white"/>
<path fill-rule="evenodd" clip-rule="evenodd" d="M8.64684 8.07281C9.31004 7.46281 10.2785 7.24752 10.8103 7.59196C11.3421 7.93648 11.2358 8.71028 10.5726 9.32028C9.90994 9.93019 8.94104 10.1453 8.40924 9.80074C7.87744 9.45629 7.98404 8.68265 8.64684 8.07273V8.07281Z" fill="white"/>
</svg>
